<svg width="64" height="64" viewBox="0 0 64 64" fill="none" xmlns="http://www.w3.org/2000/svg">
  <defs>
    <linearGradient id="bg" x1="10" y1="6" x2="56" y2="60" gradientUnits="userSpaceOnUse">
      <stop stop-color="#0F0F0F"/>
      <stop offset="1" stop-color="#000000"/>
    </linearGradient>
    <radialGradient id="glow" cx="0" cy="0" r="1" gradientUnits="userSpaceOnUse" gradientTransform="translate(18 14) rotate(50) scale(28)">
      <stop stop-color="#C3E41D" stop-opacity="0.36"/>
      <stop offset="1" stop-color="#C3E41D" stop-opacity="0"/>
    </radialGradient>
  </defs>
  <rect x="4" y="4" width="56" height="56" rx="18" fill="url(#bg)"/>
  <rect x="4.75" y="4.75" width="54.5" height="54.5" rx="17.25" stroke="#FFFFFF" stroke-opacity="0.12"/>
  <circle cx="18" cy="14" r="28" fill="url(#glow)"/>
  <path d="M24 17H33.8C40.9 17 45 21.1 45 27.4C45 33.7 40.9 37.8 33.8 37.8H29.6V47H24V17ZM33.4 33.2C37.4 33.2 39.3 31.2 39.3 27.4C39.3 23.5 37.4 21.6 33.4 21.6H29.6V33.2H33.4Z" fill="#F8F8F4"/>
  <rect x="22" y="50" width="20" height="3" rx="1.5" fill="#C3E41D"/>
</svg>
